 0
SECTION
 2
HEADER
 0
ENDSEC
 0
SECTION
 2
TABLES
 0
ENDSEC
 0
SECTION
 2
BLOCKS
0
BLOCK
70
0
2
RQ_16_ADI
10
0
20
0
30
0
999
##### Poly 49 ####
0
POLYLINE
5
36
70
1
8
2
6
CONTINUOUS
66
1
10
0
20
0
30
0
39
.069
0
VERTEX
8
2
6
CONTINUOUS
 10
.15578
 20
-.055
 30
0
0
VERTEX
8
2
6
CONTINUOUS
 10
.15578
 20
-.07
 30
0
0
VERTEX
8
2
6
CONTINUOUS
 10
.14578
 20
-.07
 30
0
0
VERTEX
8
2
6
CONTINUOUS
 10
.14578
 20
-.055
 30
0
0
SEQEND
0
3DFACE
5
49
8
0
6
CONTINUOUS
 10
.15578
 20
-.055
 30
.069
 11
.15578
 21
-.07
 31
.069
 12
.14578
 22
-.07
 32
.069
 13
.14578
 23
-.055
 33
.069
0
3DFACE
5
49
8
0
6
CONTINUOUS
 10
.15578
 20
-.055
 30
0
 11
.15578
 21
-.07
 31
0
 12
.14578
 22
-.07
 32
0
 13
.14578
 23
-.055
 33
0
999
##### Poly 126 ####
0
POLYLINE
5
36
70
1
8
8
6
CONTINUOUS
66
1
10
0
20
0
30
0
39
.069
0
VERTEX
8
8
6
CONTINUOUS
 10
-.14578
 20
-.10448
 30
0
0
VERTEX
8
8
6
CONTINUOUS
 10
-.14578
 20
.10448
 30
0
0
VERTEX
8
8
6
CONTINUOUS
 10
-.089
 20
.10448
 30
0
0
VERTEX
8
8
6
CONTINUOUS
 10
-.089
 20
.1085
 30
0
0
VERTEX
8
8
6
CONTINUOUS
 10
.089
 20
.1085
 30
0
0
VERTEX
8
8
6
CONTINUOUS
 10
.089
 20
.10448
 30
0
0
VERTEX
8
8
6
CONTINUOUS
 10
.14578
 20
.10448
 30
0
0
VERTEX
8
8
6
CONTINUOUS
 10
.14578
 20
-.10448
 30
0
0
VERTEX
8
8
6
CONTINUOUS
 10
.089
 20
-.10448
 30
0
0
VERTEX
8
8
6
CONTINUOUS
 10
.089
 20
-.1085
 30
0
0
VERTEX
8
8
6
CONTINUOUS
 10
-.089
 20
-.1085
 30
0
0
VERTEX
8
8
6
CONTINUOUS
 10
-.089
 20
-.10448
 30
0
0
SEQEND
999
##### Poly 144 ####
0
POLYLINE
5
36
70
1
8
23
6
CONTINUOUS
66
1
10
0
20
0
30
0
39
.069
0
VERTEX
8
23
6
CONTINUOUS
 10
-.16078
 20
-.1085
 30
0
0
VERTEX
8
23
6
CONTINUOUS
 10
-.16078
 20
.1085
 30
0
0
VERTEX
8
23
6
CONTINUOUS
 10
.16078
 20
.1085
 30
0
0
VERTEX
8
23
6
CONTINUOUS
 10
.16078
 20
-.1085
 30
0
0
SEQEND
0
3DFACE
5
49
8
0
6
CONTINUOUS
 10
-.16078
 20
-.1085
 30
.069
 11
-.16078
 21
.1085
 31
.069
 12
.16078
 22
.1085
 32
.069
 13
.16078
 23
-.1085
 33
.069
0
3DFACE
5
49
8
0
6
CONTINUOUS
 10
-.16078
 20
-.1085
 30
0
 11
-.16078
 21
.1085
 31
0
 12
.16078
 22
.1085
 32
0
 13
.16078
 23
-.1085
 33
0
0
ENDBLK
0
BLOCK
70
0
2
RQ_16_ADI-L
10
0
20
0
30
0
999
##### Poly 49 ####
0
POLYLINE
5
36
70
1
8
2
6
CONTINUOUS
66
1
10
0
20
0
30
0
39
.069
0
VERTEX
8
2
6
CONTINUOUS
 10
.14791
 20
-.055
 30
0
0
VERTEX
8
2
6
CONTINUOUS
 10
.14791
 20
-.07
 30
0
0
VERTEX
8
2
6
CONTINUOUS
 10
.13791
 20
-.07
 30
0
0
VERTEX
8
2
6
CONTINUOUS
 10
.13791
 20
-.055
 30
0
0
SEQEND
0
3DFACE
5
49
8
0
6
CONTINUOUS
 10
.14791
 20
-.055
 30
.069
 11
.14791
 21
-.07
 31
.069
 12
.13791
 22
-.07
 32
.069
 13
.13791
 23
-.055
 33
.069
0
3DFACE
5
49
8
0
6
CONTINUOUS
 10
.14791
 20
-.055
 30
0
 11
.14791
 21
-.07
 31
0
 12
.13791
 22
-.07
 32
0
 13
.13791
 23
-.055
 33
0
999
##### Poly 126 ####
0
POLYLINE
5
36
70
1
8
8
6
CONTINUOUS
66
1
10
0
20
0
30
0
39
.069
0
VERTEX
8
8
6
CONTINUOUS
 10
-.13191
 20
-.0975
 30
0
0
VERTEX
8
8
6
CONTINUOUS
 10
-.13191
 20
.0975
 30
0
0
VERTEX
8
8
6
CONTINUOUS
 10
-.083
 20
.0975
 30
0
0
VERTEX
8
8
6
CONTINUOUS
 10
-.083
 20
.1025
 30
0
0
VERTEX
8
8
6
CONTINUOUS
 10
.083
 20
.1025
 30
0
0
VERTEX
8
8
6
CONTINUOUS
 10
.083
 20
.0975
 30
0
0
VERTEX
8
8
6
CONTINUOUS
 10
.13191
 20
.0975
 30
0
0
VERTEX
8
8
6
CONTINUOUS
 10
.13191
 20
-.0975
 30
0
0
VERTEX
8
8
6
CONTINUOUS
 10
.083
 20
-.0975
 30
0
0
VERTEX
8
8
6
CONTINUOUS
 10
.083
 20
-.1025
 30
0
0
VERTEX
8
8
6
CONTINUOUS
 10
-.083
 20
-.1025
 30
0
0
VERTEX
8
8
6
CONTINUOUS
 10
-.083
 20
-.0975
 30
0
0
SEQEND
999
##### Poly 144 ####
0
POLYLINE
5
36
70
1
8
23
6
CONTINUOUS
66
1
10
0
20
0
30
0
39
.069
0
VERTEX
8
23
6
CONTINUOUS
 10
-.15291
 20
-.1085
 30
0
0
VERTEX
8
23
6
CONTINUOUS
 10
-.15291
 20
.1085
 30
0
0
VERTEX
8
23
6
CONTINUOUS
 10
.15291
 20
.1085
 30
0
0
VERTEX
8
23
6
CONTINUOUS
 10
.15291
 20
-.1085
 30
0
0
SEQEND
0
3DFACE
5
49
8
0
6
CONTINUOUS
 10
-.15291
 20
-.1085
 30
.069
 11
-.15291
 21
.1085
 31
.069
 12
.15291
 22
.1085
 32
.069
 13
.15291
 23
-.1085
 33
.069
0
3DFACE
5
49
8
0
6
CONTINUOUS
 10
-.15291
 20
-.1085
 30
0
 11
-.15291
 21
.1085
 31
0
 12
.15291
 22
.1085
 32
0
 13
.15291
 23
-.1085
 33
0
0
ENDBLK
0
BLOCK
70
0
2
RQ_16_ADI-M
10
0
20
0
30
0
999
##### Poly 49 ####
0
POLYLINE
5
36
70
1
8
2
6
CONTINUOUS
66
1
10
0
20
0
30
0
39
.069
0
VERTEX
8
2
6
CONTINUOUS
 10
.16365
 20
-.055
 30
0
0
VERTEX
8
2
6
CONTINUOUS
 10
.16365
 20
-.07
 30
0
0
VERTEX
8
2
6
CONTINUOUS
 10
.15365
 20
-.07
 30
0
0
VERTEX
8
2
6
CONTINUOUS
 10
.15365
 20
-.055
 30
0
0
SEQEND
0
3DFACE
5
49
8
0
6
CONTINUOUS
 10
.16365
 20
-.055
 30
.069
 11
.16365
 21
-.07
 31
.069
 12
.15365
 22
-.07
 32
.069
 13
.15365
 23
-.055
 33
.069
0
3DFACE
5
49
8
0
6
CONTINUOUS
 10
.16365
 20
-.055
 30
0
 11
.16365
 21
-.07
 31
0
 12
.15365
 22
-.07
 32
0
 13
.15365
 23
-.055
 33
0
999
##### Poly 126 ####
0
POLYLINE
5
36
70
1
8
8
6
CONTINUOUS
66
1
10
0
20
0
30
0
39
.069
0
VERTEX
8
8
6
CONTINUOUS
 10
-.16365
 20
-.11448
 30
0
0
VERTEX
8
8
6
CONTINUOUS
 10
-.16365
 20
.11448
 30
0
0
VERTEX
8
8
6
CONTINUOUS
 10
-.099
 20
.11448
 30
0
0
VERTEX
8
8
6
CONTINUOUS
 10
-.099
 20
.1185
 30
0
0
VERTEX
8
8
6
CONTINUOUS
 10
.099
 20
.1185
 30
0
0
VERTEX
8
8
6
CONTINUOUS
 10
.099
 20
.11448
 30
0
0
VERTEX
8
8
6
CONTINUOUS
 10
.16365
 20
.11448
 30
0
0
VERTEX
8
8
6
CONTINUOUS
 10
.16365
 20
-.11448
 30
0
0
VERTEX
8
8
6
CONTINUOUS
 10
.099
 20
-.11448
 30
0
0
VERTEX
8
8
6
CONTINUOUS
 10
.099
 20
-.1185
 30
0
0
VERTEX
8
8
6
CONTINUOUS
 10
-.099
 20
-.1185
 30
0
0
VERTEX
8
8
6
CONTINUOUS
 10
-.099
 20
-.11448
 30
0
0
SEQEND
999
##### Poly 144 ####
0
POLYLINE
5
36
70
1
8
23
6
CONTINUOUS
66
1
10
0
20
0
30
0
39
.069
0
VERTEX
8
23
6
CONTINUOUS
 10
-.16865
 20
-.1085
 30
0
0
VERTEX
8
23
6
CONTINUOUS
 10
-.16865
 20
.1085
 30
0
0
VERTEX
8
23
6
CONTINUOUS
 10
.16865
 20
.1085
 30
0
0
VERTEX
8
23
6
CONTINUOUS
 10
.16865
 20
-.1085
 30
0
0
SEQEND
0
3DFACE
5
49
8
0
6
CONTINUOUS
 10
-.16865
 20
-.1085
 30
.069
 11
-.16865
 21
.1085
 31
.069
 12
.16865
 22
.1085
 32
.069
 13
.16865
 23
-.1085
 33
.069
0
3DFACE
5
49
8
0
6
CONTINUOUS
 10
-.16865
 20
-.1085
 30
0
 11
-.16865
 21
.1085
 31
0
 12
.16865
 22
.1085
 32
0
 13
.16865
 23
-.1085
 33
0
0
ENDBLK
0
ENDSEC
0
SECTION
2
ENTITIES
 0
INSERT
 8
0
 2
RQ_16_ADI
 10
0
 20
0
 30
0
 41
1
 42
1
 43
1
 0
INSERT
 8
0
 2
RQ_16_ADI-L
 10
2
 20
0
 30
0
 41
1
 42
1
 43
1
 0
INSERT
 8
0
 2
RQ_16_ADI-M
 10
0
 20
2
 30
0
 41
1
 42
1
 43
1
0
ENDSEC
 0
EOF

